<?xml version="1.0" encoding="utf-8"?>
<!-- Generator: Adobe Illustrator 27.0.1, SVG Export Plug-In . SVG Version: 6.00 Build 0)  -->
<svg version="1.1" id="Layer_1" xmlns="http://www.w3.org/2000/svg" xmlns:xlink="http://www.w3.org/1999/xlink" x="0px" y="0px"
	 viewBox="0 0 269.3 96.4" style="enable-background:new 0 0 269.3 96.4;" xml:space="preserve">
<style type="text/css">
	.st0{fill:#EFEAEA;}
</style>
<g id="Group_2" transform="translate(-1054.505 -937.499)">
	<path id="Path_3" class="st0" d="M1292.1,1018.4h-139.2c-4.6,0.1-8.4-3.7-8.5-8.3s3.7-8.4,8.3-8.5c0.1,0,0.1,0,0.2,0h139.2
		c8.3,0,15-6.7,15-15v-2.2c0-8.3-6.7-15-15-15h-58.7l29.7-29.7c3.3-3.2,8.6-3.2,11.8,0.1c3.2,3.2,3.2,8.4,0,11.7l-1.1,1.1h18.3
		c17.5,0,31.7,14.2,31.7,31.7v2.2C1323.8,1004.2,1309.6,1018.4,1292.1,1018.4z"/>
	<path id="Path_4" class="st0" d="M1109.3,1033.9c-4.6,0-8.4-3.7-8.4-8.4c0-2.2,0.9-4.3,2.4-5.9l1.1-1.1h-18.3
		c-17.5,0-31.7-14.2-31.7-31.7v-2.2c0-17.5,14.2-31.7,31.7-31.7h139.2c4.6,0,8.4,3.7,8.4,8.3c0,4.6-3.7,8.4-8.3,8.4c0,0,0,0,0,0
		h-139.2c-8.3,0-15,6.7-15,15v2.2c0,8.3,6.7,15,15,15h58.7l-29.7,29.7C1113.7,1033,1111.6,1033.9,1109.3,1033.9z"/>
	<g id="Group_1" transform="translate(1089.116 981.877)">
		<path id="Path_5" class="st0" d="M4.4-0.1c1.1,0,2.2,0.4,3,1.2c0.1,0.1,0.1,0.2,0.1,0.3c0,0,0,0,0,0l-1,1c-0.1,0.1-0.2,0.1-0.3,0
			c-0.4-0.4-1-0.6-1.6-0.6C3.2,1.9,2.1,3,2.1,4.4c0,1.4,1.1,2.5,2.5,2.5c0.4,0,0.7-0.1,1.1-0.2V5.9H4.9c-0.1,0-0.2-0.1-0.2-0.2
			c0,0,0,0,0,0V4.5c0-0.1,0.1-0.2,0.2-0.2c0,0,0,0,0,0h2.5c0.1,0,0.2,0.1,0.2,0.2l0,3.3c0,0.1,0,0.1-0.1,0.2c-0.9,0.5-2,0.8-3.1,0.8
			C2,8.8,0,6.8,0,4.4S2-0.1,4.4-0.1L4.4-0.1z"/>
		<path id="Path_6" class="st0" d="M14.2,0.3c0-0.1,0.1-0.2,0.2-0.2h1.5c0.1,0,0.2,0.1,0.2,0.2v8.2c0,0.1-0.1,0.2-0.2,0.2h-1.5
			c-0.1,0-0.2-0.1-0.2-0.2V0.3z"/>
		<path id="Path_7" class="st0" d="M22,0.4c-0.1-0.1,0-0.2,0.1-0.3c0,0,0.1,0,0.1,0h1.6c0.1,0,0.2,0.1,0.2,0.1l2,4.5h0.1l2-4.5
			c0-0.1,0.1-0.1,0.2-0.1h1.6c0.1,0,0.2,0.1,0.2,0.2c0,0,0,0.1,0,0.1l-3.9,8.3c0,0.1-0.1,0.1-0.2,0.1h-0.1c-0.1,0-0.2-0.1-0.2-0.1
			L22,0.4z"/>
		<path id="Path_8" class="st0" d="M36.1,0.3c0-0.1,0.1-0.2,0.2-0.2h5.1c0.1,0,0.2,0.1,0.2,0.2c0,0,0,0,0,0v1.3
			c0,0.1-0.1,0.2-0.2,0.2h-3.4v1.5h2.8c0.1,0,0.2,0.1,0.2,0.2V5c0,0.1-0.1,0.2-0.2,0.2h-2.8v1.7h3.4c0.1,0,0.2,0.1,0.2,0.2l0,0v1.3
			c0,0.1-0.1,0.2-0.2,0.2h-5.1c-0.1,0-0.2-0.1-0.2-0.2V0.3z"/>
		<path id="Path_9" class="st0" d="M53.8,4L53.8,4l-0.2-0.3c-0.5-0.5-0.8-1.1-0.8-1.8c0.1-1.2,1.1-2.1,2.3-2c0,0,0.1,0,0.1,0
			c1.2-0.1,2.3,0.8,2.5,2c0,0,0,0,0,0c0,1.4-1.3,2.1-1.3,2.2l1.1,1.1c0.2-0.3,0.3-0.6,0.4-1c0.1-0.3,0.1-0.5,0.5-0.3l0.9,0.3
			c0.3,0.1,0.2,0.4,0.2,0.6c-0.2,0.5-0.5,1.1-0.8,1.5l1,1c0.2,0.1,0.3,0.3,0,0.6l-0.7,0.7c-0.1,0.1-0.4,0.1-0.5,0c0,0,0,0,0,0
			l-0.8-0.8c-0.7,0.7-1.7,1-2.7,1c-1.4,0.1-2.6-0.9-2.7-2.3c0,0,0,0,0-0.1C52.1,5.4,52.8,4.4,53.8,4z M55,7.3c0.5,0,1-0.2,1.3-0.6
			l-1.6-1.7c-0.5,0.2-0.9,0.7-0.9,1.3C53.9,6.8,54.4,7.3,55,7.3C55,7.3,55,7.3,55,7.3z M56,2.1c0-0.5-0.4-0.8-0.9-0.8c0,0,0,0,0,0
			c-0.4,0-0.7,0.2-0.7,0.6c0,0,0,0,0,0c0,0.4,0.2,0.6,0.6,1l0.3,0.3C55.2,3.1,56,2.8,56,2.1z"/>
		<path id="Path_10" class="st0" d="M73.6-0.1c1.1,0,2.2,0.4,3,1.2c0.1,0.1,0.1,0.2,0.1,0.3c0,0,0,0,0,0l-1,1
			c-0.1,0.1-0.2,0.1-0.3,0c-0.4-0.4-1-0.6-1.6-0.6c-1.4,0-2.5,1.1-2.5,2.5c0,1.4,1.1,2.5,2.5,2.5c0.4,0,0.7-0.1,1.1-0.2V5.9h-0.8
			c-0.1,0-0.2-0.1-0.2-0.2c0,0,0,0,0,0V4.5c0-0.1,0.1-0.2,0.2-0.2c0,0,0,0,0,0h2.5c0.1,0,0.2,0.1,0.2,0.2l0,3.3c0,0.1,0,0.1-0.1,0.2
			c-0.9,0.5-2,0.8-3.1,0.8c-2.4,0-4.4-2-4.4-4.4S71.2-0.1,73.6-0.1L73.6-0.1z"/>
		<path id="Path_11" class="st0" d="M83.4,0.3c0-0.1,0.1-0.2,0.2-0.2c0,0,0,0,0,0h5.1c0.1,0,0.2,0.1,0.2,0.2v1.3
			c0,0.1-0.1,0.2-0.2,0.2h-3.4v1.5h2.8c0.1,0,0.2,0.1,0.2,0.2V5c0,0.1-0.1,0.2-0.2,0.2c0,0,0,0,0,0h-2.8v1.7h3.4
			C88.9,6.9,89,7,89,7.1v1.3c0,0.1-0.1,0.2-0.2,0.2h-5.1c-0.1,0-0.2-0.1-0.2-0.2l0,0V0.3z"/>
		<path id="Path_12" class="st0" d="M96.7,1.9h-1.8c-0.1,0-0.2-0.1-0.2-0.2V0.3c0-0.1,0.1-0.2,0.2-0.2c0,0,0,0,0,0h5.5
			c0.1,0,0.2,0.1,0.2,0.2c0,0,0,0,0,0v1.3c0,0.1-0.1,0.2-0.2,0.2h-1.8v6.6c0,0.1-0.1,0.2-0.2,0.2h-1.5c-0.1,0-0.2-0.1-0.2-0.2V1.9z"
			/>
		<path id="Path_13" class="st0" d="M114.5,0.3c0-0.1,0.1-0.2,0.2-0.2c0,0,0,0,0,0h3.7c1.5,0,2.7,1.1,2.7,2.6c0,1.2-0.7,2.2-1.8,2.6
			l1.7,3.1c0.1,0.1,0,0.3-0.1,0.3c0,0-0.1,0-0.1,0h-1.6c-0.1,0-0.2,0-0.2-0.1l-1.6-3.3h-0.9v3.1c0,0.1-0.1,0.2-0.2,0.2h-1.5
			c-0.1,0-0.2-0.1-0.2-0.2l0,0L114.5,0.3z M118.2,3.7c0.5,0,0.9-0.5,0.9-1c0-0.5-0.4-0.9-0.9-0.9h-1.8v1.9H118.2z"/>
		<path id="Path_14" class="st0" d="M127.5,0.3c0-0.1,0.1-0.2,0.2-0.2c0,0,0,0,0,0h5.1c0.1,0,0.2,0.1,0.2,0.2c0,0,0,0,0,0v1.3
			c0,0.1-0.1,0.2-0.2,0.2h-3.4v1.5h2.8c0.1,0,0.2,0.1,0.2,0.2V5c0,0.1-0.1,0.2-0.2,0.2c0,0,0,0,0,0h-2.8v1.7h3.4
			c0.1,0,0.2,0.1,0.2,0.2l0,0v1.3c0,0.1-0.1,0.2-0.2,0.2l0,0h-5.1c-0.1,0-0.2-0.1-0.2-0.2V0.3z"/>
		<path id="Path_15" class="st0" d="M138.9,0.3c0-0.1,0-0.2,0.1-0.3c0,0,0.1,0,0.1,0h1.4c0.1,0,0.2,0.1,0.2,0.2l1.1,4.2h0l1.9-4.3
			c0-0.1,0.1-0.1,0.2-0.1h0.2c0.1,0,0.2,0,0.2,0.1l1.9,4.3h0l1.1-4.2c0-0.1,0.1-0.2,0.2-0.2h1.4c0.1,0,0.2,0.1,0.2,0.2
			c0,0,0,0.1,0,0.1L147,8.6c0,0.1-0.1,0.2-0.2,0.2h-0.2c-0.1,0-0.2-0.1-0.2-0.1l-2.3-5h0l-2.2,5c0,0.1-0.1,0.1-0.2,0.1h-0.2
			c-0.1,0-0.2-0.1-0.2-0.2L138.9,0.3z"/>
		<path id="Path_16" class="st0" d="M154,8.4l3.9-8.3c0-0.1,0.1-0.1,0.2-0.1h0.1c0.1,0,0.2,0.1,0.2,0.1l3.9,8.3
			c0.1,0.1,0,0.2-0.1,0.3c0,0-0.1,0-0.1,0h-1.4c-0.2,0-0.3-0.1-0.4-0.3l-0.4-1h-3.4l-0.4,1c-0.1,0.2-0.2,0.3-0.4,0.3h-1.4
			c-0.1,0-0.2-0.1-0.2-0.2C153.9,8.5,153.9,8.4,154,8.4z M159,5.7l-0.9-2h0l-0.9,2H159z"/>
		<path id="Path_17" class="st0" d="M168.1,0.3c0-0.1,0.1-0.2,0.2-0.2h3.7c1.5,0,2.7,1.1,2.7,2.6c0,1.2-0.7,2.2-1.8,2.6l1.7,3.1
			c0.1,0.1,0,0.3-0.1,0.3c0,0-0.1,0-0.1,0h-1.6c-0.1,0-0.2,0-0.2-0.1l-1.6-3.3H170v3.1c0,0.1-0.1,0.2-0.2,0.2h-1.5
			c-0.1,0-0.2-0.1-0.2-0.2L168.1,0.3z M171.8,3.7c0.5,0,0.9-0.5,0.9-1c0-0.5-0.4-0.9-0.9-0.9H170v1.9H171.8z"/>
		<path id="Path_18" class="st0" d="M181.2,0.3c0-0.1,0.1-0.2,0.2-0.2h3c2.4,0,4.3,1.9,4.3,4.3s-1.9,4.3-4.3,4.3c0,0,0,0,0,0h-3
			c-0.1,0-0.2-0.1-0.2-0.2V0.3z M184.3,6.9c1.4,0,2.5-1.1,2.5-2.5s-1.1-2.5-2.5-2.5h-1.2v5H184.3z"/>
		<path id="Path_19" class="st0" d="M194.5,7.5l0.6-1c0.1-0.1,0.3-0.2,0.4-0.1c0.5,0.4,1.1,0.6,1.8,0.7c0.4,0,0.8-0.3,0.8-0.7
			c0,0,0,0,0,0c0-0.5-0.4-0.9-1.3-1.2c-1.1-0.4-2.4-1.2-2.4-2.7c0-1.4,1.2-2.5,2.6-2.5c0.1,0,0.1,0,0.2,0c1,0,1.9,0.3,2.6,0.9
			c0.1,0.1,0.2,0.3,0.1,0.4l-0.6,1c-0.1,0.1-0.3,0.2-0.4,0.2c-0.5-0.4-1.1-0.6-1.8-0.7c-0.4,0-0.7,0.2-0.8,0.6
			c0,0.5,0.4,0.8,1.3,1.2s2.5,1.1,2.5,2.8c-0.1,1.5-1.4,2.6-2.9,2.6c0,0,0,0-0.1,0c-1,0.1-2-0.3-2.8-1
			C194.4,7.7,194.4,7.7,194.5,7.5z"/>
	</g>
</g>
</svg>
